<?xml version="1.0" standalone="no"?>
<!DOCTYPE svg PUBLIC "-//W3C//DTD SVG 20010904//EN"
 "http://www.w3.org/TR/2001/REC-SVG-20010904/DTD/svg10.dtd">
<svg version="1.0" xmlns="http://www.w3.org/2000/svg"
 width="500.000000pt" height="500.000000pt" viewBox="0 0 500.000000 500.000000"
 preserveAspectRatio="xMidYMid meet">
<metadata>
Created by potrace 1.14, written by Peter Selinger 2001-2017
</metadata>
<g transform="translate(0.000000,500.000000) scale(0.100000,-0.100000)"
fill="#000000" stroke="none">
<path d="M1038 3655 c-2 -2 -25 -6 -53 -9 -118 -15 -296 -80 -423 -155 -73
-43 -174 -125 -242 -198 -168 -180 -270 -387 -308 -623 -9 -57 -9 -270 0 -335
34 -243 148 -466 332 -651 163 -164 351 -267 581 -319 114 -26 342 -27 465 -1
14 3 39 8 55 12 174 34 439 177 636 341 137 113 361 346 411 426 4 7 15 0 30
-18 191 -245 463 -486 683 -608 119 -65 296 -134 390 -151 116 -20 154 -23
270 -21 71 2 141 6 155 9 14 3 36 8 50 11 14 3 34 7 45 9 53 10 187 61 250 94
214 112 406 306 512 517 32 63 79 186 88 233 27 128 32 181 30 312 -3 119 -8
163 -30 245 -51 195 -143 365 -273 505 -165 179 -342 284 -583 347 -92 23
-123 27 -264 27 -166 0 -231 -9 -375 -56 -207 -66 -417 -192 -614 -368 -83
-74 -232 -230 -294 -307 -31 -40 -59 -72 -62 -72 -3 0 -30 32 -60 72 -131 171
-401 415 -583 526 -140 86 -337 165 -457 185 -19 3 -46 9 -60 12 -26 6 -296
14 -302 9z m327 -425 c192 -52 420 -196 607 -383 72 -72 198 -220 254 -297
l34 -47 -80 -105 c-87 -115 -237 -272 -345 -363 -175 -146 -398 -261 -554
-283 -62 -9 -206 -8 -260 2 -230 41 -455 217 -551 431 -130 289 -71 621 148
843 123 124 260 195 432 225 63 11 238 -2 315 -23z m2645 11 c157 -42 271
-108 379 -220 133 -139 200 -300 207 -496 13 -357 -212 -658 -566 -760 -86
-25 -278 -26 -368 -2 -201 54 -412 183 -608 374 -131 127 -304 334 -304 363 0
6 26 46 59 88 270 354 606 601 891 657 77 15 246 12 310 -4z"/>
<path d="M700 2500 l0 -200 500 0 500 0 0 200 0 200 -500 0 -500 0 0 -200z"/>
<path d="M3600 2850 l0 -150 -150 0 -150 0 0 -200 0 -200 150 0 150 0 0 -150
0 -150 200 0 200 0 0 150 0 150 150 0 150 0 0 200 0 200 -150 0 -150 0 0 150
0 150 -200 0 -200 0 0 -150z"/>
</g>
</svg>
